<mxfile host="app.diagrams.net" modified="2020-10-16T20:50:40.355Z" agent="5.0 (Windows NT 10.0; Win64; x64) AppleWebKit/537.36 (KHTML, like Gecko) Chrome/86.0.4240.75 Safari/537.36" etag="ISWMcttbd9WXgRS3tfzH" version="13.8.0" type="github">
  <diagram id="8g0LjR1PSN-NgNXDDD8f" name="Page-1">
    <mxGraphModel dx="712" dy="659" grid="1" gridSize="10" guides="1" tooltips="1" connect="1" arrows="1" fold="1" page="1" pageScale="1" pageWidth="850" pageHeight="1100" math="0" shadow="0">
      <root>
        <mxCell id="0" />
        <mxCell id="1" parent="0" />
        <mxCell id="l1MZ9OpHBA4qs5OOFsFq-14" value="Implements" style="endArrow=block;dashed=1;endFill=0;endSize=12;html=1;exitX=0.696;exitY=0.015;exitDx=0;exitDy=0;exitPerimeter=0;entryX=0.242;entryY=1.077;entryDx=0;entryDy=0;entryPerimeter=0;" parent="1" source="l1MZ9OpHBA4qs5OOFsFq-6" target="Oe_54RmSkAc1uxY_o-EN-8" edge="1">
          <mxGeometry width="160" relative="1" as="geometry">
            <mxPoint x="316" y="380" as="sourcePoint" />
            <mxPoint x="686" y="500" as="targetPoint" />
          </mxGeometry>
        </mxCell>
        <mxCell id="l1MZ9OpHBA4qs5OOFsFq-15" value="Extends" style="endArrow=block;endSize=16;endFill=0;html=1;exitX=0.5;exitY=0;exitDx=0;exitDy=0;" parent="1" source="l1MZ9OpHBA4qs5OOFsFq-6" target="l1MZ9OpHBA4qs5OOFsFq-18" edge="1">
          <mxGeometry width="160" relative="1" as="geometry">
            <mxPoint x="236" y="660" as="sourcePoint" />
            <mxPoint x="526" y="400" as="targetPoint" />
          </mxGeometry>
        </mxCell>
        <mxCell id="Oe_54RmSkAc1uxY_o-EN-5" value="Implements" style="endArrow=block;dashed=1;endFill=0;endSize=12;html=1;exitX=1;exitY=0.5;exitDx=0;exitDy=0;entryX=0.013;entryY=1;entryDx=0;entryDy=0;entryPerimeter=0;" edge="1" parent="1" source="l1MZ9OpHBA4qs5OOFsFq-7" target="Oe_54RmSkAc1uxY_o-EN-4">
          <mxGeometry width="160" relative="1" as="geometry">
            <mxPoint x="575.9999999999999" y="550.29" as="sourcePoint" />
            <mxPoint x="814.64" y="482" as="targetPoint" />
          </mxGeometry>
        </mxCell>
        <mxCell id="l1MZ9OpHBA4qs5OOFsFq-6" value="Dog" style="swimlane;fontStyle=1;align=center;verticalAlign=top;childLayout=stackLayout;horizontal=1;startSize=26;horizontalStack=0;resizeParent=1;resizeParentMax=0;resizeLast=0;collapsible=1;marginBottom=0;" parent="1" vertex="1">
          <mxGeometry x="496" y="570" width="164" height="112" as="geometry" />
        </mxCell>
        <mxCell id="l1MZ9OpHBA4qs5OOFsFq-7" value="+ field: type" style="text;strokeColor=none;fillColor=none;align=left;verticalAlign=top;spacingLeft=4;spacingRight=4;overflow=hidden;rotatable=0;points=[[0,0.5],[1,0.5]];portConstraint=eastwest;" parent="l1MZ9OpHBA4qs5OOFsFq-6" vertex="1">
          <mxGeometry y="26" width="164" height="26" as="geometry" />
        </mxCell>
        <mxCell id="l1MZ9OpHBA4qs5OOFsFq-8" value="" style="line;strokeWidth=1;fillColor=none;align=left;verticalAlign=middle;spacingTop=-1;spacingLeft=3;spacingRight=3;rotatable=0;labelPosition=right;points=[];portConstraint=eastwest;" parent="l1MZ9OpHBA4qs5OOFsFq-6" vertex="1">
          <mxGeometry y="52" width="164" height="8" as="geometry" />
        </mxCell>
        <mxCell id="l1MZ9OpHBA4qs5OOFsFq-9" value="+ isLicensed(): Boolean" style="text;strokeColor=none;fillColor=none;align=left;verticalAlign=top;spacingLeft=4;spacingRight=4;overflow=hidden;rotatable=0;points=[[0,0.5],[1,0.5]];portConstraint=eastwest;" parent="l1MZ9OpHBA4qs5OOFsFq-6" vertex="1">
          <mxGeometry y="60" width="164" height="26" as="geometry" />
        </mxCell>
        <mxCell id="Oe_54RmSkAc1uxY_o-EN-14" value="+ getCoreVaccines(): String()" style="text;strokeColor=none;fillColor=none;align=left;verticalAlign=top;spacingLeft=4;spacingRight=4;overflow=hidden;rotatable=0;points=[[0,0.5],[1,0.5]];portConstraint=eastwest;" vertex="1" parent="l1MZ9OpHBA4qs5OOFsFq-6">
          <mxGeometry y="86" width="164" height="26" as="geometry" />
        </mxCell>
        <mxCell id="Oe_54RmSkAc1uxY_o-EN-13" value="Extends" style="endArrow=block;endSize=16;endFill=0;html=1;entryX=0.323;entryY=1.115;entryDx=0;entryDy=0;entryPerimeter=0;" edge="1" parent="1" source="Oe_54RmSkAc1uxY_o-EN-9" target="l1MZ9OpHBA4qs5OOFsFq-18">
          <mxGeometry width="160" relative="1" as="geometry">
            <mxPoint x="384" y="570" as="sourcePoint" />
            <mxPoint x="392.51046025104597" y="344" as="targetPoint" />
          </mxGeometry>
        </mxCell>
        <mxCell id="Oe_54RmSkAc1uxY_o-EN-9" value="Cat" style="swimlane;fontStyle=1;align=center;verticalAlign=top;childLayout=stackLayout;horizontal=1;startSize=26;horizontalStack=0;resizeParent=1;resizeParentMax=0;resizeLast=0;collapsible=1;marginBottom=0;" vertex="1" parent="1">
          <mxGeometry x="290" y="570" width="163" height="86" as="geometry" />
        </mxCell>
        <mxCell id="Oe_54RmSkAc1uxY_o-EN-10" value="+ GENUS: String = &quot;Felis&quot;" style="text;strokeColor=none;fillColor=none;align=left;verticalAlign=top;spacingLeft=4;spacingRight=4;overflow=hidden;rotatable=0;points=[[0,0.5],[1,0.5]];portConstraint=eastwest;fontStyle=4" vertex="1" parent="Oe_54RmSkAc1uxY_o-EN-9">
          <mxGeometry y="26" width="163" height="26" as="geometry" />
        </mxCell>
        <mxCell id="Oe_54RmSkAc1uxY_o-EN-11" value="" style="line;strokeWidth=1;fillColor=none;align=left;verticalAlign=middle;spacingTop=-1;spacingLeft=3;spacingRight=3;rotatable=0;labelPosition=right;points=[];portConstraint=eastwest;" vertex="1" parent="Oe_54RmSkAc1uxY_o-EN-9">
          <mxGeometry y="52" width="163" height="8" as="geometry" />
        </mxCell>
        <mxCell id="Oe_54RmSkAc1uxY_o-EN-12" value="+ method(type): type" style="text;strokeColor=none;fillColor=none;align=left;verticalAlign=top;spacingLeft=4;spacingRight=4;overflow=hidden;rotatable=0;points=[[0,0.5],[1,0.5]];portConstraint=eastwest;" vertex="1" parent="Oe_54RmSkAc1uxY_o-EN-9">
          <mxGeometry y="60" width="163" height="26" as="geometry" />
        </mxCell>
        <mxCell id="l1MZ9OpHBA4qs5OOFsFq-10" value="«interface»&#xa;LicensedPet" style="swimlane;fontStyle=1;align=center;verticalAlign=top;childLayout=stackLayout;horizontal=1;startSize=40;horizontalStack=0;resizeParent=1;resizeParentMax=0;resizeLast=0;collapsible=1;marginBottom=0;" parent="1" vertex="1">
          <mxGeometry x="736" y="390" width="193" height="118" as="geometry" />
        </mxCell>
        <mxCell id="l1MZ9OpHBA4qs5OOFsFq-13" value="+ isLicensed(): Boolean" style="text;strokeColor=none;fillColor=none;align=left;verticalAlign=top;spacingLeft=4;spacingRight=4;overflow=hidden;rotatable=0;points=[[0,0.5],[1,0.5]];portConstraint=eastwest;" parent="l1MZ9OpHBA4qs5OOFsFq-10" vertex="1">
          <mxGeometry y="40" width="193" height="26" as="geometry" />
        </mxCell>
        <mxCell id="Oe_54RmSkAc1uxY_o-EN-7" value="+ assignLicense()" style="text;strokeColor=none;fillColor=none;align=left;verticalAlign=top;spacingLeft=4;spacingRight=4;overflow=hidden;rotatable=0;points=[[0,0.5],[1,0.5]];portConstraint=eastwest;" vertex="1" parent="l1MZ9OpHBA4qs5OOFsFq-10">
          <mxGeometry y="66" width="193" height="26" as="geometry" />
        </mxCell>
        <mxCell id="Oe_54RmSkAc1uxY_o-EN-8" value="+ wheLicensed(): LocalDateTime" style="text;strokeColor=none;fillColor=none;align=left;verticalAlign=top;spacingLeft=4;spacingRight=4;overflow=hidden;rotatable=0;points=[[0,0.5],[1,0.5]];portConstraint=eastwest;" vertex="1" parent="l1MZ9OpHBA4qs5OOFsFq-10">
          <mxGeometry y="92" width="193" height="26" as="geometry" />
        </mxCell>
        <mxCell id="Oe_54RmSkAc1uxY_o-EN-1" value="«interface»&#xa;TrainedDog" style="swimlane;fontStyle=1;align=center;verticalAlign=top;childLayout=stackLayout;horizontal=1;startSize=40;horizontalStack=0;resizeParent=1;resizeParentMax=0;resizeLast=0;collapsible=1;marginBottom=0;" vertex="1" parent="1">
          <mxGeometry x="980" y="408" width="163" height="100" as="geometry" />
        </mxCell>
        <mxCell id="Oe_54RmSkAc1uxY_o-EN-2" value="+ field: type" style="text;strokeColor=none;fillColor=none;align=left;verticalAlign=top;spacingLeft=4;spacingRight=4;overflow=hidden;rotatable=0;points=[[0,0.5],[1,0.5]];portConstraint=eastwest;" vertex="1" parent="Oe_54RmSkAc1uxY_o-EN-1">
          <mxGeometry y="40" width="163" height="26" as="geometry" />
        </mxCell>
        <mxCell id="Oe_54RmSkAc1uxY_o-EN-3" value="" style="line;strokeWidth=1;fillColor=none;align=left;verticalAlign=middle;spacingTop=-1;spacingLeft=3;spacingRight=3;rotatable=0;labelPosition=right;points=[];portConstraint=eastwest;" vertex="1" parent="Oe_54RmSkAc1uxY_o-EN-1">
          <mxGeometry y="66" width="163" height="8" as="geometry" />
        </mxCell>
        <mxCell id="Oe_54RmSkAc1uxY_o-EN-4" value="+ method(type): type" style="text;strokeColor=none;fillColor=none;align=left;verticalAlign=top;spacingLeft=4;spacingRight=4;overflow=hidden;rotatable=0;points=[[0,0.5],[1,0.5]];portConstraint=eastwest;" vertex="1" parent="Oe_54RmSkAc1uxY_o-EN-1">
          <mxGeometry y="74" width="163" height="26" as="geometry" />
        </mxCell>
        <mxCell id="l1MZ9OpHBA4qs5OOFsFq-1" value="«abstract»&#xa;Pet" style="swimlane;fontStyle=1;align=center;verticalAlign=top;childLayout=stackLayout;horizontal=1;startSize=40;horizontalStack=0;resizeParent=1;resizeParentMax=0;resizeLast=0;collapsible=1;marginBottom=0;" parent="1" vertex="1">
          <mxGeometry x="387.5" y="160" width="405" height="204" as="geometry" />
        </mxCell>
        <mxCell id="l1MZ9OpHBA4qs5OOFsFq-2" value="- numOfPets: int = 0" style="text;strokeColor=none;fillColor=none;align=left;verticalAlign=top;spacingLeft=4;spacingRight=4;overflow=hidden;rotatable=0;points=[[0,0.5],[1,0.5]];portConstraint=eastwest;" parent="l1MZ9OpHBA4qs5OOFsFq-1" vertex="1">
          <mxGeometry y="40" width="405" height="26" as="geometry" />
        </mxCell>
        <mxCell id="l1MZ9OpHBA4qs5OOFsFq-5" value="- name: String" style="text;strokeColor=none;fillColor=none;align=left;verticalAlign=top;spacingLeft=4;spacingRight=4;overflow=hidden;rotatable=0;points=[[0,0.5],[1,0.5]];portConstraint=eastwest;" parent="l1MZ9OpHBA4qs5OOFsFq-1" vertex="1">
          <mxGeometry y="66" width="405" height="26" as="geometry" />
        </mxCell>
        <mxCell id="l1MZ9OpHBA4qs5OOFsFq-3" value="" style="line;strokeWidth=1;fillColor=none;align=left;verticalAlign=middle;spacingTop=-1;spacingLeft=3;spacingRight=3;rotatable=0;labelPosition=right;points=[];portConstraint=eastwest;" parent="l1MZ9OpHBA4qs5OOFsFq-1" vertex="1">
          <mxGeometry y="92" width="405" height="8" as="geometry" />
        </mxCell>
        <mxCell id="l1MZ9OpHBA4qs5OOFsFq-4" value="+ «constructor» Pet()" style="text;strokeColor=none;fillColor=none;align=left;verticalAlign=top;spacingLeft=4;spacingRight=4;overflow=hidden;rotatable=0;points=[[0,0.5],[1,0.5]];portConstraint=eastwest;" parent="l1MZ9OpHBA4qs5OOFsFq-1" vertex="1">
          <mxGeometry y="100" width="405" height="26" as="geometry" />
        </mxCell>
        <mxCell id="l1MZ9OpHBA4qs5OOFsFq-16" value="+ «constructor» Pet(name: String, age: intm type: String, gender: Gender)" style="text;strokeColor=none;fillColor=none;align=left;verticalAlign=top;spacingLeft=4;spacingRight=4;overflow=hidden;rotatable=0;points=[[0,0.5],[1,0.5]];portConstraint=eastwest;" parent="l1MZ9OpHBA4qs5OOFsFq-1" vertex="1">
          <mxGeometry y="126" width="405" height="26" as="geometry" />
        </mxCell>
        <mxCell id="l1MZ9OpHBA4qs5OOFsFq-17" value="+ «abstract» getCoreVaccines(): String()" style="text;strokeColor=none;fillColor=none;align=left;verticalAlign=top;spacingLeft=4;spacingRight=4;overflow=hidden;rotatable=0;points=[[0,0.5],[1,0.5]];portConstraint=eastwest;" parent="l1MZ9OpHBA4qs5OOFsFq-1" vertex="1">
          <mxGeometry y="152" width="405" height="26" as="geometry" />
        </mxCell>
        <mxCell id="l1MZ9OpHBA4qs5OOFsFq-18" value="+ getNumOfPets(): int" style="text;strokeColor=none;fillColor=none;align=left;verticalAlign=top;spacingLeft=4;spacingRight=4;overflow=hidden;rotatable=0;points=[[0,0.5],[1,0.5]];portConstraint=eastwest;fontStyle=4" parent="l1MZ9OpHBA4qs5OOFsFq-1" vertex="1">
          <mxGeometry y="178" width="405" height="26" as="geometry" />
        </mxCell>
        <mxCell id="Oe_54RmSkAc1uxY_o-EN-15" value="«enumeration»&#xa;Gender" style="swimlane;fontStyle=1;align=center;verticalAlign=top;childLayout=stackLayout;horizontal=1;startSize=40;horizontalStack=0;resizeParent=1;resizeParentMax=0;resizeLast=0;collapsible=1;marginBottom=0;" vertex="1" parent="1">
          <mxGeometry x="510" y="30" width="160" height="92" as="geometry" />
        </mxCell>
        <mxCell id="Oe_54RmSkAc1uxY_o-EN-16" value="FEMALE" style="text;strokeColor=none;fillColor=none;align=left;verticalAlign=top;spacingLeft=4;spacingRight=4;overflow=hidden;rotatable=0;points=[[0,0.5],[1,0.5]];portConstraint=eastwest;" vertex="1" parent="Oe_54RmSkAc1uxY_o-EN-15">
          <mxGeometry y="40" width="160" height="26" as="geometry" />
        </mxCell>
        <mxCell id="Oe_54RmSkAc1uxY_o-EN-19" value="MALE" style="text;strokeColor=none;fillColor=none;align=left;verticalAlign=top;spacingLeft=4;spacingRight=4;overflow=hidden;rotatable=0;points=[[0,0.5],[1,0.5]];portConstraint=eastwest;" vertex="1" parent="Oe_54RmSkAc1uxY_o-EN-15">
          <mxGeometry y="66" width="160" height="26" as="geometry" />
        </mxCell>
      </root>
    </mxGraphModel>
  </diagram>
</mxfile>
